<mxfile etag="DQUgu4jr8gYCNt__bpKp" agent="Mozilla/5.0 (Windows NT 10.0; Win64; x64) AppleWebKit/537.36 (KHTML, like Gecko) Chrome/80.0.3987.132 Safari/537.36" modified="2020-03-10T11:16:34.692Z" host="www.draw.io" version="12.8.2" type="github">
  <diagram id="C5RBs43oDa-KdzZeNtuy" name="Page-1">
    <mxGraphModel dx="2591" dy="2416" grid="1" gridSize="10" guides="1" tooltips="1" connect="1" arrows="1" fold="1" page="1" pageScale="1" pageWidth="1169" pageHeight="827" math="0" shadow="0">
      <root>
        <mxCell id="WIyWlLk6GJQsqaUBKTNV-0" />
        <mxCell id="WIyWlLk6GJQsqaUBKTNV-1" parent="WIyWlLk6GJQsqaUBKTNV-0" />
        <mxCell id="0TbLO2mfNWgMp-bxgsxS-0" value="Animal" style="swimlane;fontStyle=1;align=center;verticalAlign=top;childLayout=stackLayout;horizontal=1;startSize=26;horizontalStack=0;resizeParent=1;resizeParentMax=0;resizeLast=0;collapsible=1;marginBottom=0;" parent="WIyWlLk6GJQsqaUBKTNV-1" vertex="1">
          <mxGeometry x="-299" y="-1636" width="200" height="350" as="geometry" />
        </mxCell>
        <mxCell id="0TbLO2mfNWgMp-bxgsxS-1" value="- name: string&#xa;- diet: string&#xa;- gender: string&#xa;- age: Integer&#xa;- weight: Double&#xa;- Poisonous: Boolean&#xa;- Temperature&#xa;- NaturalHabitat: String&#xa;- Medication: String&#xa;" style="text;strokeColor=none;fillColor=none;align=left;verticalAlign=top;spacingLeft=4;spacingRight=4;overflow=hidden;rotatable=0;points=[[0,0.5],[1,0.5]];portConstraint=eastwest;" parent="0TbLO2mfNWgMp-bxgsxS-0" vertex="1">
          <mxGeometry y="26" width="200" height="134" as="geometry" />
        </mxCell>
        <mxCell id="0TbLO2mfNWgMp-bxgsxS-2" value="" style="line;strokeWidth=1;fillColor=none;align=left;verticalAlign=middle;spacingTop=-1;spacingLeft=3;spacingRight=3;rotatable=0;labelPosition=right;points=[];portConstraint=eastwest;" parent="0TbLO2mfNWgMp-bxgsxS-0" vertex="1">
          <mxGeometry y="160" width="200" height="8" as="geometry" />
        </mxCell>
        <mxCell id="0TbLO2mfNWgMp-bxgsxS-3" value="+ GetName()&#xa;+ SetName(name)&#xa;+ GetDiet()&#xa;+ GetGender()&#xa;+ GetAge()&#xa;+ Breathe()&#xa;+ Eat()&#xa;+ Excrete()&#xa;+ Sleep()&#xa;+ GetIll()&#xa;+Move()&#xa;+ Reproduce()&#xa;" style="text;strokeColor=none;fillColor=none;align=left;verticalAlign=top;spacingLeft=4;spacingRight=4;overflow=hidden;rotatable=0;points=[[0,0.5],[1,0.5]];portConstraint=eastwest;" parent="0TbLO2mfNWgMp-bxgsxS-0" vertex="1">
          <mxGeometry y="168" width="200" height="182" as="geometry" />
        </mxCell>
        <mxCell id="0TbLO2mfNWgMp-bxgsxS-5" value="Mammals" style="swimlane;fontStyle=1;align=center;verticalAlign=top;childLayout=stackLayout;horizontal=1;startSize=26;horizontalStack=0;resizeParent=1;resizeParentMax=0;resizeLast=0;collapsible=1;marginBottom=0;" parent="WIyWlLk6GJQsqaUBKTNV-1" vertex="1">
          <mxGeometry x="-839" y="-1378.71" width="210" height="190" as="geometry" />
        </mxCell>
        <mxCell id="0TbLO2mfNWgMp-bxgsxS-6" value="- furType: String&#xa;- Noise: String&#xa;- SleepSchedule: String&#xa;- ExerciseNeededKm: Double" style="text;strokeColor=none;fillColor=none;align=left;verticalAlign=top;spacingLeft=4;spacingRight=4;overflow=hidden;rotatable=0;points=[[0,0.5],[1,0.5]];portConstraint=eastwest;" parent="0TbLO2mfNWgMp-bxgsxS-5" vertex="1">
          <mxGeometry y="26" width="210" height="74" as="geometry" />
        </mxCell>
        <mxCell id="0TbLO2mfNWgMp-bxgsxS-7" value="" style="line;strokeWidth=1;fillColor=none;align=left;verticalAlign=middle;spacingTop=-1;spacingLeft=3;spacingRight=3;rotatable=0;labelPosition=right;points=[];portConstraint=eastwest;" parent="0TbLO2mfNWgMp-bxgsxS-5" vertex="1">
          <mxGeometry y="100" width="210" height="8" as="geometry" />
        </mxCell>
        <mxCell id="cL8bjoN6jts4UuPoE08g-39" value="+ Reproduce()&#xa;+ SetSleepSchedule(SleepSchedule)&#xa;+ GetSleepSchedule()&#xa;+ GetExerciseNeeded()&#xa;+ SetExerciseNeeded()" style="text;strokeColor=none;fillColor=none;align=left;verticalAlign=top;spacingLeft=4;spacingRight=4;overflow=hidden;rotatable=0;points=[[0,0.5],[1,0.5]];portConstraint=eastwest;" parent="0TbLO2mfNWgMp-bxgsxS-5" vertex="1">
          <mxGeometry y="108" width="210" height="82" as="geometry" />
        </mxCell>
        <mxCell id="MYj5JW25N3nviBPNFUwC-0" value="" style="endArrow=block;endSize=16;endFill=0;html=1;exitX=1;exitY=0;exitDx=0;exitDy=0;entryX=0;entryY=0.5;entryDx=0;entryDy=0;" parent="WIyWlLk6GJQsqaUBKTNV-1" source="0TbLO2mfNWgMp-bxgsxS-5" target="0TbLO2mfNWgMp-bxgsxS-3" edge="1">
          <mxGeometry y="-60" width="160" relative="1" as="geometry">
            <mxPoint x="-569" y="-1068.71" as="sourcePoint" />
            <mxPoint x="-409" y="-1068.71" as="targetPoint" />
            <Array as="points" />
            <mxPoint as="offset" />
          </mxGeometry>
        </mxCell>
        <mxCell id="m3c3d1ibpdt9MSrah0Dr-0" value="Birds" style="swimlane;fontStyle=1;align=center;verticalAlign=top;childLayout=stackLayout;horizontal=1;startSize=26;horizontalStack=0;resizeParent=1;resizeParentMax=0;resizeLast=0;collapsible=1;marginBottom=0;" parent="WIyWlLk6GJQsqaUBKTNV-1" vertex="1">
          <mxGeometry x="-499" y="-1636" width="160" height="186" as="geometry" />
        </mxCell>
        <mxCell id="m3c3d1ibpdt9MSrah0Dr-1" value="- ColourOfFeathers: String&#xa;- BeakSize: String&#xa;- Depression: Boolean&#xa;- Enclosure: String&#xa;- Noise: String" style="text;strokeColor=none;fillColor=none;align=left;verticalAlign=top;spacingLeft=4;spacingRight=4;overflow=hidden;rotatable=0;points=[[0,0.5],[1,0.5]];portConstraint=eastwest;" parent="m3c3d1ibpdt9MSrah0Dr-0" vertex="1">
          <mxGeometry y="26" width="160" height="80" as="geometry" />
        </mxCell>
        <mxCell id="m3c3d1ibpdt9MSrah0Dr-2" value="" style="line;strokeWidth=1;fillColor=none;align=left;verticalAlign=middle;spacingTop=-1;spacingLeft=3;spacingRight=3;rotatable=0;labelPosition=right;points=[];portConstraint=eastwest;" parent="m3c3d1ibpdt9MSrah0Dr-0" vertex="1">
          <mxGeometry y="106" width="160" height="10" as="geometry" />
        </mxCell>
        <mxCell id="m3c3d1ibpdt9MSrah0Dr-3" value="+ GetFeatherColour()&#xa;+ GetBeakSize()&#xa;+ GetDepression()&#xa;+SetDepression(Depression)" style="text;strokeColor=none;fillColor=none;align=left;verticalAlign=top;spacingLeft=4;spacingRight=4;overflow=hidden;rotatable=0;points=[[0,0.5],[1,0.5]];portConstraint=eastwest;" parent="m3c3d1ibpdt9MSrah0Dr-0" vertex="1">
          <mxGeometry y="116" width="160" height="70" as="geometry" />
        </mxCell>
        <mxCell id="m3c3d1ibpdt9MSrah0Dr-4" value="" style="endArrow=block;endSize=16;endFill=0;html=1;entryX=0;entryY=0.5;entryDx=0;entryDy=0;exitX=1;exitY=0.5;exitDx=0;exitDy=0;" parent="WIyWlLk6GJQsqaUBKTNV-1" source="m3c3d1ibpdt9MSrah0Dr-3" target="0TbLO2mfNWgMp-bxgsxS-1" edge="1">
          <mxGeometry y="-50" width="160" relative="1" as="geometry">
            <mxPoint x="-9" y="-1428.71" as="sourcePoint" />
            <mxPoint x="-439" y="-978.71" as="targetPoint" />
            <Array as="points" />
            <mxPoint as="offset" />
          </mxGeometry>
        </mxCell>
        <mxCell id="m3c3d1ibpdt9MSrah0Dr-5" value="" style="endArrow=block;endSize=16;endFill=0;html=1;entryX=0.53;entryY=1;entryDx=0;entryDy=0;entryPerimeter=0;exitX=0.5;exitY=0;exitDx=0;exitDy=0;" parent="WIyWlLk6GJQsqaUBKTNV-1" source="m3c3d1ibpdt9MSrah0Dr-6" target="0TbLO2mfNWgMp-bxgsxS-3" edge="1">
          <mxGeometry x="0.125" y="-60" width="160" relative="1" as="geometry">
            <mxPoint x="-623" y="-1086" as="sourcePoint" />
            <mxPoint x="-849" y="-986" as="targetPoint" />
            <mxPoint as="offset" />
          </mxGeometry>
        </mxCell>
        <mxCell id="m3c3d1ibpdt9MSrah0Dr-6" value="Fish" style="swimlane;fontStyle=1;align=center;verticalAlign=top;childLayout=stackLayout;horizontal=1;startSize=26;horizontalStack=0;resizeParent=1;resizeParentMax=0;resizeLast=0;collapsible=1;marginBottom=0;" parent="WIyWlLk6GJQsqaUBKTNV-1" vertex="1">
          <mxGeometry x="-370" y="-1240" width="160" height="120" as="geometry" />
        </mxCell>
        <mxCell id="m3c3d1ibpdt9MSrah0Dr-7" value="- gills: Boolean&#xa;- fins: Boolean&#xa;- depth: Double&#xa;- waterTemp: Double&#xa;- TankSize: String" style="text;strokeColor=none;fillColor=none;align=left;verticalAlign=top;spacingLeft=4;spacingRight=4;overflow=hidden;rotatable=0;points=[[0,0.5],[1,0.5]];portConstraint=eastwest;" parent="m3c3d1ibpdt9MSrah0Dr-6" vertex="1">
          <mxGeometry y="26" width="160" height="74" as="geometry" />
        </mxCell>
        <mxCell id="m3c3d1ibpdt9MSrah0Dr-8" value="" style="line;strokeWidth=1;fillColor=none;align=left;verticalAlign=middle;spacingTop=-1;spacingLeft=3;spacingRight=3;rotatable=0;labelPosition=right;points=[];portConstraint=eastwest;" parent="m3c3d1ibpdt9MSrah0Dr-6" vertex="1">
          <mxGeometry y="100" width="160" height="20" as="geometry" />
        </mxCell>
        <mxCell id="m3c3d1ibpdt9MSrah0Dr-10" value="" style="endArrow=block;endSize=16;endFill=0;html=1;entryX=0;entryY=0.5;entryDx=0;entryDy=0;exitX=1;exitY=0;exitDx=0;exitDy=0;" parent="WIyWlLk6GJQsqaUBKTNV-1" source="m3c3d1ibpdt9MSrah0Dr-11" target="cL8bjoN6jts4UuPoE08g-39" edge="1">
          <mxGeometry x="-0.25" y="-20" width="160" relative="1" as="geometry">
            <mxPoint x="-999" y="-1158.71" as="sourcePoint" />
            <mxPoint x="-679" y="-1028.71" as="targetPoint" />
            <Array as="points" />
            <mxPoint as="offset" />
          </mxGeometry>
        </mxCell>
        <mxCell id="m3c3d1ibpdt9MSrah0Dr-11" value="Lemur" style="swimlane;fontStyle=1;align=center;verticalAlign=top;childLayout=stackLayout;horizontal=1;startSize=26;horizontalStack=0;resizeParent=1;resizeParentMax=0;resizeLast=0;collapsible=1;marginBottom=0;" parent="WIyWlLk6GJQsqaUBKTNV-1" vertex="1">
          <mxGeometry x="-1169" y="-1190.71" width="160" height="86" as="geometry" />
        </mxCell>
        <mxCell id="m3c3d1ibpdt9MSrah0Dr-12" value="- " style="text;strokeColor=none;fillColor=none;align=left;verticalAlign=top;spacingLeft=4;spacingRight=4;overflow=hidden;rotatable=0;points=[[0,0.5],[1,0.5]];portConstraint=eastwest;" parent="m3c3d1ibpdt9MSrah0Dr-11" vertex="1">
          <mxGeometry y="26" width="160" height="26" as="geometry" />
        </mxCell>
        <mxCell id="m3c3d1ibpdt9MSrah0Dr-13" value="" style="line;strokeWidth=1;fillColor=none;align=left;verticalAlign=middle;spacingTop=-1;spacingLeft=3;spacingRight=3;rotatable=0;labelPosition=right;points=[];portConstraint=eastwest;" parent="m3c3d1ibpdt9MSrah0Dr-11" vertex="1">
          <mxGeometry y="52" width="160" height="8" as="geometry" />
        </mxCell>
        <mxCell id="m3c3d1ibpdt9MSrah0Dr-14" value="+" style="text;strokeColor=none;fillColor=none;align=left;verticalAlign=top;spacingLeft=4;spacingRight=4;overflow=hidden;rotatable=0;points=[[0,0.5],[1,0.5]];portConstraint=eastwest;" parent="m3c3d1ibpdt9MSrah0Dr-11" vertex="1">
          <mxGeometry y="60" width="160" height="26" as="geometry" />
        </mxCell>
        <mxCell id="m3c3d1ibpdt9MSrah0Dr-15" value="Red Panda" style="swimlane;fontStyle=1;align=center;verticalAlign=top;childLayout=stackLayout;horizontal=1;startSize=26;horizontalStack=0;resizeParent=1;resizeParentMax=0;resizeLast=0;collapsible=1;marginBottom=0;" parent="WIyWlLk6GJQsqaUBKTNV-1" vertex="1">
          <mxGeometry x="-1129" y="-1072.71" width="160" height="86" as="geometry" />
        </mxCell>
        <mxCell id="m3c3d1ibpdt9MSrah0Dr-16" value="- " style="text;strokeColor=none;fillColor=none;align=left;verticalAlign=top;spacingLeft=4;spacingRight=4;overflow=hidden;rotatable=0;points=[[0,0.5],[1,0.5]];portConstraint=eastwest;" parent="m3c3d1ibpdt9MSrah0Dr-15" vertex="1">
          <mxGeometry y="26" width="160" height="26" as="geometry" />
        </mxCell>
        <mxCell id="m3c3d1ibpdt9MSrah0Dr-17" value="" style="line;strokeWidth=1;fillColor=none;align=left;verticalAlign=middle;spacingTop=-1;spacingLeft=3;spacingRight=3;rotatable=0;labelPosition=right;points=[];portConstraint=eastwest;" parent="m3c3d1ibpdt9MSrah0Dr-15" vertex="1">
          <mxGeometry y="52" width="160" height="8" as="geometry" />
        </mxCell>
        <mxCell id="m3c3d1ibpdt9MSrah0Dr-18" value="+ " style="text;strokeColor=none;fillColor=none;align=left;verticalAlign=top;spacingLeft=4;spacingRight=4;overflow=hidden;rotatable=0;points=[[0,0.5],[1,0.5]];portConstraint=eastwest;" parent="m3c3d1ibpdt9MSrah0Dr-15" vertex="1">
          <mxGeometry y="60" width="160" height="26" as="geometry" />
        </mxCell>
        <mxCell id="m3c3d1ibpdt9MSrah0Dr-19" value="" style="endArrow=block;endSize=16;endFill=0;html=1;exitX=0.75;exitY=0;exitDx=0;exitDy=0;entryX=-0.019;entryY=1.033;entryDx=0;entryDy=0;entryPerimeter=0;" parent="WIyWlLk6GJQsqaUBKTNV-1" source="m3c3d1ibpdt9MSrah0Dr-15" target="cL8bjoN6jts4UuPoE08g-39" edge="1">
          <mxGeometry x="-0.125" y="-20" width="160" relative="1" as="geometry">
            <mxPoint x="-989" y="-888.71" as="sourcePoint" />
            <mxPoint x="-839" y="-1147.71" as="targetPoint" />
            <Array as="points" />
            <mxPoint as="offset" />
          </mxGeometry>
        </mxCell>
        <mxCell id="m3c3d1ibpdt9MSrah0Dr-31" value="Orca" style="swimlane;fontStyle=1;align=center;verticalAlign=top;childLayout=stackLayout;horizontal=1;startSize=26;horizontalStack=0;resizeParent=1;resizeParentMax=0;resizeLast=0;collapsible=1;marginBottom=0;" parent="WIyWlLk6GJQsqaUBKTNV-1" vertex="1">
          <mxGeometry x="-1169" y="-1348.71" width="180" height="100" as="geometry" />
        </mxCell>
        <mxCell id="m3c3d1ibpdt9MSrah0Dr-32" value="- NumberInPod: String" style="text;strokeColor=none;fillColor=none;align=left;verticalAlign=top;spacingLeft=4;spacingRight=4;overflow=hidden;rotatable=0;points=[[0,0.5],[1,0.5]];portConstraint=eastwest;" parent="m3c3d1ibpdt9MSrah0Dr-31" vertex="1">
          <mxGeometry y="26" width="180" height="24" as="geometry" />
        </mxCell>
        <mxCell id="m3c3d1ibpdt9MSrah0Dr-33" value="" style="line;strokeWidth=1;fillColor=none;align=left;verticalAlign=middle;spacingTop=-1;spacingLeft=3;spacingRight=3;rotatable=0;labelPosition=right;points=[];portConstraint=eastwest;" parent="m3c3d1ibpdt9MSrah0Dr-31" vertex="1">
          <mxGeometry y="50" width="180" height="8" as="geometry" />
        </mxCell>
        <mxCell id="m3c3d1ibpdt9MSrah0Dr-34" value="+ SetNumberInPod()&#xa;+ GetNumberInPod()" style="text;strokeColor=none;fillColor=none;align=left;verticalAlign=top;spacingLeft=4;spacingRight=4;overflow=hidden;rotatable=0;points=[[0,0.5],[1,0.5]];portConstraint=eastwest;" parent="m3c3d1ibpdt9MSrah0Dr-31" vertex="1">
          <mxGeometry y="58" width="180" height="42" as="geometry" />
        </mxCell>
        <mxCell id="m3c3d1ibpdt9MSrah0Dr-35" value="" style="endArrow=block;endSize=16;endFill=0;html=1;exitX=1;exitY=0.5;exitDx=0;exitDy=0;entryX=0;entryY=0.25;entryDx=0;entryDy=0;" parent="WIyWlLk6GJQsqaUBKTNV-1" source="m3c3d1ibpdt9MSrah0Dr-31" target="0TbLO2mfNWgMp-bxgsxS-5" edge="1">
          <mxGeometry y="10" width="160" relative="1" as="geometry">
            <mxPoint x="-1069" y="-668.71" as="sourcePoint" />
            <mxPoint x="-839" y="-1218.71" as="targetPoint" />
            <mxPoint as="offset" />
          </mxGeometry>
        </mxCell>
        <mxCell id="m3c3d1ibpdt9MSrah0Dr-36" value="Dolphin" style="swimlane;fontStyle=1;align=center;verticalAlign=top;childLayout=stackLayout;horizontal=1;startSize=26;horizontalStack=0;resizeParent=1;resizeParentMax=0;resizeLast=0;collapsible=1;marginBottom=0;" parent="WIyWlLk6GJQsqaUBKTNV-1" vertex="1">
          <mxGeometry x="-929" y="-1072.71" width="160" height="86" as="geometry" />
        </mxCell>
        <mxCell id="m3c3d1ibpdt9MSrah0Dr-37" value="- " style="text;strokeColor=none;fillColor=none;align=left;verticalAlign=top;spacingLeft=4;spacingRight=4;overflow=hidden;rotatable=0;points=[[0,0.5],[1,0.5]];portConstraint=eastwest;" parent="m3c3d1ibpdt9MSrah0Dr-36" vertex="1">
          <mxGeometry y="26" width="160" height="26" as="geometry" />
        </mxCell>
        <mxCell id="m3c3d1ibpdt9MSrah0Dr-38" value="" style="line;strokeWidth=1;fillColor=none;align=left;verticalAlign=middle;spacingTop=-1;spacingLeft=3;spacingRight=3;rotatable=0;labelPosition=right;points=[];portConstraint=eastwest;" parent="m3c3d1ibpdt9MSrah0Dr-36" vertex="1">
          <mxGeometry y="52" width="160" height="8" as="geometry" />
        </mxCell>
        <mxCell id="m3c3d1ibpdt9MSrah0Dr-39" value="+" style="text;strokeColor=none;fillColor=none;align=left;verticalAlign=top;spacingLeft=4;spacingRight=4;overflow=hidden;rotatable=0;points=[[0,0.5],[1,0.5]];portConstraint=eastwest;" parent="m3c3d1ibpdt9MSrah0Dr-36" vertex="1">
          <mxGeometry y="60" width="160" height="26" as="geometry" />
        </mxCell>
        <mxCell id="m3c3d1ibpdt9MSrah0Dr-40" value="" style="endArrow=block;endSize=16;endFill=0;html=1;exitX=0.5;exitY=0;exitDx=0;exitDy=0;entryX=0.271;entryY=1.021;entryDx=0;entryDy=0;entryPerimeter=0;" parent="WIyWlLk6GJQsqaUBKTNV-1" source="m3c3d1ibpdt9MSrah0Dr-36" target="cL8bjoN6jts4UuPoE08g-39" edge="1">
          <mxGeometry x="0.125" y="10" width="160" relative="1" as="geometry">
            <mxPoint x="-1069" y="-668.71" as="sourcePoint" />
            <mxPoint x="-780" y="-1180" as="targetPoint" />
            <mxPoint as="offset" />
          </mxGeometry>
        </mxCell>
        <mxCell id="m3c3d1ibpdt9MSrah0Dr-41" value="Polar Bear" style="swimlane;fontStyle=1;align=center;verticalAlign=top;childLayout=stackLayout;horizontal=1;startSize=26;horizontalStack=0;resizeParent=1;resizeParentMax=0;resizeLast=0;collapsible=1;marginBottom=0;" parent="WIyWlLk6GJQsqaUBKTNV-1" vertex="1">
          <mxGeometry x="-569" y="-1358.71" width="160" height="140" as="geometry" />
        </mxCell>
        <mxCell id="m3c3d1ibpdt9MSrah0Dr-42" value="- NumberOfTeeth: Integer&#xa;- " style="text;strokeColor=none;fillColor=none;align=left;verticalAlign=top;spacingLeft=4;spacingRight=4;overflow=hidden;rotatable=0;points=[[0,0.5],[1,0.5]];portConstraint=eastwest;" parent="m3c3d1ibpdt9MSrah0Dr-41" vertex="1">
          <mxGeometry y="26" width="160" height="44" as="geometry" />
        </mxCell>
        <mxCell id="m3c3d1ibpdt9MSrah0Dr-43" value="" style="line;strokeWidth=1;fillColor=none;align=left;verticalAlign=middle;spacingTop=-1;spacingLeft=3;spacingRight=3;rotatable=0;labelPosition=right;points=[];portConstraint=eastwest;" parent="m3c3d1ibpdt9MSrah0Dr-41" vertex="1">
          <mxGeometry y="70" width="160" height="8" as="geometry" />
        </mxCell>
        <mxCell id="m3c3d1ibpdt9MSrah0Dr-44" value="+ method(type): type" style="text;strokeColor=none;fillColor=none;align=left;verticalAlign=top;spacingLeft=4;spacingRight=4;overflow=hidden;rotatable=0;points=[[0,0.5],[1,0.5]];portConstraint=eastwest;" parent="m3c3d1ibpdt9MSrah0Dr-41" vertex="1">
          <mxGeometry y="78" width="160" height="62" as="geometry" />
        </mxCell>
        <mxCell id="m3c3d1ibpdt9MSrah0Dr-45" value="" style="endArrow=block;endSize=16;endFill=0;html=1;exitX=0;exitY=0.5;exitDx=0;exitDy=0;entryX=1;entryY=0.5;entryDx=0;entryDy=0;" parent="WIyWlLk6GJQsqaUBKTNV-1" source="m3c3d1ibpdt9MSrah0Dr-42" target="0TbLO2mfNWgMp-bxgsxS-6" edge="1">
          <mxGeometry x="-0.4171" y="10" width="160" relative="1" as="geometry">
            <mxPoint x="-729" y="-1068.71" as="sourcePoint" />
            <mxPoint x="-569" y="-1068.71" as="targetPoint" />
            <mxPoint as="offset" />
          </mxGeometry>
        </mxCell>
        <mxCell id="m3c3d1ibpdt9MSrah0Dr-46" value="&lt;br&gt;" style="endArrow=block;endSize=16;endFill=0;html=1;exitX=0;exitY=0.25;exitDx=0;exitDy=0;entryX=1;entryY=0.5;entryDx=0;entryDy=0;" parent="WIyWlLk6GJQsqaUBKTNV-1" source="m3c3d1ibpdt9MSrah0Dr-47" target="cL8bjoN6jts4UuPoE08g-39" edge="1">
          <mxGeometry x="0.125" y="-10" width="160" relative="1" as="geometry">
            <mxPoint x="-679" y="-938.71" as="sourcePoint" />
            <mxPoint x="-669" y="-1178.71" as="targetPoint" />
            <mxPoint as="offset" />
          </mxGeometry>
        </mxCell>
        <mxCell id="m3c3d1ibpdt9MSrah0Dr-47" value="Giant Panda" style="swimlane;fontStyle=1;align=center;verticalAlign=top;childLayout=stackLayout;horizontal=1;startSize=26;horizontalStack=0;resizeParent=1;resizeParentMax=0;resizeLast=0;collapsible=1;marginBottom=0;" parent="WIyWlLk6GJQsqaUBKTNV-1" vertex="1">
          <mxGeometry x="-569" y="-1190.71" width="160" height="86" as="geometry" />
        </mxCell>
        <mxCell id="m3c3d1ibpdt9MSrah0Dr-48" value="- MassOfBamboo: Double" style="text;strokeColor=none;fillColor=none;align=left;verticalAlign=top;spacingLeft=4;spacingRight=4;overflow=hidden;rotatable=0;points=[[0,0.5],[1,0.5]];portConstraint=eastwest;" parent="m3c3d1ibpdt9MSrah0Dr-47" vertex="1">
          <mxGeometry y="26" width="160" height="26" as="geometry" />
        </mxCell>
        <mxCell id="m3c3d1ibpdt9MSrah0Dr-49" value="" style="line;strokeWidth=1;fillColor=none;align=left;verticalAlign=middle;spacingTop=-1;spacingLeft=3;spacingRight=3;rotatable=0;labelPosition=right;points=[];portConstraint=eastwest;" parent="m3c3d1ibpdt9MSrah0Dr-47" vertex="1">
          <mxGeometry y="52" width="160" height="8" as="geometry" />
        </mxCell>
        <mxCell id="m3c3d1ibpdt9MSrah0Dr-50" value="+ method(type): type" style="text;strokeColor=none;fillColor=none;align=left;verticalAlign=top;spacingLeft=4;spacingRight=4;overflow=hidden;rotatable=0;points=[[0,0.5],[1,0.5]];portConstraint=eastwest;" parent="m3c3d1ibpdt9MSrah0Dr-47" vertex="1">
          <mxGeometry y="60" width="160" height="26" as="geometry" />
        </mxCell>
        <mxCell id="m3c3d1ibpdt9MSrah0Dr-51" value="Tiger" style="swimlane;fontStyle=1;align=center;verticalAlign=top;childLayout=stackLayout;horizontal=1;startSize=26;horizontalStack=0;resizeParent=1;resizeParentMax=0;resizeLast=0;collapsible=1;marginBottom=0;" parent="WIyWlLk6GJQsqaUBKTNV-1" vertex="1">
          <mxGeometry x="-569" y="-1072.71" width="160" height="86" as="geometry" />
        </mxCell>
        <mxCell id="m3c3d1ibpdt9MSrah0Dr-52" value="+ field: type" style="text;strokeColor=none;fillColor=none;align=left;verticalAlign=top;spacingLeft=4;spacingRight=4;overflow=hidden;rotatable=0;points=[[0,0.5],[1,0.5]];portConstraint=eastwest;" parent="m3c3d1ibpdt9MSrah0Dr-51" vertex="1">
          <mxGeometry y="26" width="160" height="26" as="geometry" />
        </mxCell>
        <mxCell id="m3c3d1ibpdt9MSrah0Dr-53" value="" style="line;strokeWidth=1;fillColor=none;align=left;verticalAlign=middle;spacingTop=-1;spacingLeft=3;spacingRight=3;rotatable=0;labelPosition=right;points=[];portConstraint=eastwest;" parent="m3c3d1ibpdt9MSrah0Dr-51" vertex="1">
          <mxGeometry y="52" width="160" height="8" as="geometry" />
        </mxCell>
        <mxCell id="m3c3d1ibpdt9MSrah0Dr-54" value="+ method(type): type" style="text;strokeColor=none;fillColor=none;align=left;verticalAlign=top;spacingLeft=4;spacingRight=4;overflow=hidden;rotatable=0;points=[[0,0.5],[1,0.5]];portConstraint=eastwest;" parent="m3c3d1ibpdt9MSrah0Dr-51" vertex="1">
          <mxGeometry y="60" width="160" height="26" as="geometry" />
        </mxCell>
        <mxCell id="m3c3d1ibpdt9MSrah0Dr-55" value="Cheetah" style="swimlane;fontStyle=1;align=center;verticalAlign=top;childLayout=stackLayout;horizontal=1;startSize=26;horizontalStack=0;resizeParent=1;resizeParentMax=0;resizeLast=0;collapsible=1;marginBottom=0;" parent="WIyWlLk6GJQsqaUBKTNV-1" vertex="1">
          <mxGeometry x="-749" y="-1072.71" width="160" height="86" as="geometry" />
        </mxCell>
        <mxCell id="m3c3d1ibpdt9MSrah0Dr-56" value="- ExerciseNeeded" style="text;strokeColor=none;fillColor=none;align=left;verticalAlign=top;spacingLeft=4;spacingRight=4;overflow=hidden;rotatable=0;points=[[0,0.5],[1,0.5]];portConstraint=eastwest;" parent="m3c3d1ibpdt9MSrah0Dr-55" vertex="1">
          <mxGeometry y="26" width="160" height="26" as="geometry" />
        </mxCell>
        <mxCell id="m3c3d1ibpdt9MSrah0Dr-57" value="" style="line;strokeWidth=1;fillColor=none;align=left;verticalAlign=middle;spacingTop=-1;spacingLeft=3;spacingRight=3;rotatable=0;labelPosition=right;points=[];portConstraint=eastwest;" parent="m3c3d1ibpdt9MSrah0Dr-55" vertex="1">
          <mxGeometry y="52" width="160" height="8" as="geometry" />
        </mxCell>
        <mxCell id="m3c3d1ibpdt9MSrah0Dr-58" value="+ method(type): type" style="text;strokeColor=none;fillColor=none;align=left;verticalAlign=top;spacingLeft=4;spacingRight=4;overflow=hidden;rotatable=0;points=[[0,0.5],[1,0.5]];portConstraint=eastwest;" parent="m3c3d1ibpdt9MSrah0Dr-55" vertex="1">
          <mxGeometry y="60" width="160" height="26" as="geometry" />
        </mxCell>
        <mxCell id="m3c3d1ibpdt9MSrah0Dr-59" value="" style="endArrow=block;endSize=16;endFill=0;html=1;exitX=0.5;exitY=0;exitDx=0;exitDy=0;entryX=0.638;entryY=1.045;entryDx=0;entryDy=0;entryPerimeter=0;" parent="WIyWlLk6GJQsqaUBKTNV-1" source="m3c3d1ibpdt9MSrah0Dr-55" target="cL8bjoN6jts4UuPoE08g-39" edge="1">
          <mxGeometry y="10" width="160" relative="1" as="geometry">
            <mxPoint x="-1069" y="-668.71" as="sourcePoint" />
            <mxPoint x="-685.0699999999999" y="-1108.678" as="targetPoint" />
            <mxPoint as="offset" />
          </mxGeometry>
        </mxCell>
        <mxCell id="m3c3d1ibpdt9MSrah0Dr-60" value="" style="endArrow=block;endSize=16;endFill=0;html=1;exitX=0;exitY=0;exitDx=0;exitDy=0;entryX=0.867;entryY=1.009;entryDx=0;entryDy=0;entryPerimeter=0;" parent="WIyWlLk6GJQsqaUBKTNV-1" source="m3c3d1ibpdt9MSrah0Dr-51" target="cL8bjoN6jts4UuPoE08g-39" edge="1">
          <mxGeometry y="10" width="160" relative="1" as="geometry">
            <mxPoint x="-1069" y="-668.71" as="sourcePoint" />
            <mxPoint x="-629" y="-1147.71" as="targetPoint" />
            <mxPoint as="offset" />
          </mxGeometry>
        </mxCell>
        <mxCell id="cL8bjoN6jts4UuPoE08g-1" value="" style="endArrow=block;endSize=16;endFill=0;html=1;exitX=0.5;exitY=0;exitDx=0;exitDy=0;entryX=0.5;entryY=1;entryDx=0;entryDy=0;" parent="WIyWlLk6GJQsqaUBKTNV-1" source="cL8bjoN6jts4UuPoE08g-2" target="m3c3d1ibpdt9MSrah0Dr-6" edge="1">
          <mxGeometry x="0.125" y="-60" width="160" relative="1" as="geometry">
            <mxPoint x="-399" y="-1054" as="sourcePoint" />
            <mxPoint x="-349" y="-1154" as="targetPoint" />
            <mxPoint as="offset" />
          </mxGeometry>
        </mxCell>
        <mxCell id="cL8bjoN6jts4UuPoE08g-2" value="Blobfish" style="swimlane;fontStyle=1;align=center;verticalAlign=top;childLayout=stackLayout;horizontal=1;startSize=26;horizontalStack=0;resizeParent=1;resizeParentMax=0;resizeLast=0;collapsible=1;marginBottom=0;" parent="WIyWlLk6GJQsqaUBKTNV-1" vertex="1">
          <mxGeometry x="-370" y="-1040" width="160" height="86" as="geometry" />
        </mxCell>
        <mxCell id="cL8bjoN6jts4UuPoE08g-3" value="- " style="text;strokeColor=none;fillColor=none;align=left;verticalAlign=top;spacingLeft=4;spacingRight=4;overflow=hidden;rotatable=0;points=[[0,0.5],[1,0.5]];portConstraint=eastwest;" parent="cL8bjoN6jts4UuPoE08g-2" vertex="1">
          <mxGeometry y="26" width="160" height="26" as="geometry" />
        </mxCell>
        <mxCell id="cL8bjoN6jts4UuPoE08g-4" value="" style="line;strokeWidth=1;fillColor=none;align=left;verticalAlign=middle;spacingTop=-1;spacingLeft=3;spacingRight=3;rotatable=0;labelPosition=right;points=[];portConstraint=eastwest;" parent="cL8bjoN6jts4UuPoE08g-2" vertex="1">
          <mxGeometry y="52" width="160" height="8" as="geometry" />
        </mxCell>
        <mxCell id="cL8bjoN6jts4UuPoE08g-5" value="+" style="text;strokeColor=none;fillColor=none;align=left;verticalAlign=top;spacingLeft=4;spacingRight=4;overflow=hidden;rotatable=0;points=[[0,0.5],[1,0.5]];portConstraint=eastwest;" parent="cL8bjoN6jts4UuPoE08g-2" vertex="1">
          <mxGeometry y="60" width="160" height="26" as="geometry" />
        </mxCell>
        <mxCell id="cL8bjoN6jts4UuPoE08g-10" value="Angler Fish" style="swimlane;fontStyle=1;align=center;verticalAlign=top;childLayout=stackLayout;horizontal=1;startSize=20;horizontalStack=0;resizeParent=1;resizeParentMax=0;resizeLast=0;collapsible=1;marginBottom=0;" parent="WIyWlLk6GJQsqaUBKTNV-1" vertex="1">
          <mxGeometry x="-180" y="-1152.71" width="160" height="80" as="geometry" />
        </mxCell>
        <mxCell id="cL8bjoN6jts4UuPoE08g-11" value="- " style="text;strokeColor=none;fillColor=none;align=left;verticalAlign=top;spacingLeft=4;spacingRight=4;overflow=hidden;rotatable=0;points=[[0,0.5],[1,0.5]];portConstraint=eastwest;" parent="cL8bjoN6jts4UuPoE08g-10" vertex="1">
          <mxGeometry y="20" width="160" height="26" as="geometry" />
        </mxCell>
        <mxCell id="cL8bjoN6jts4UuPoE08g-12" value="" style="line;strokeWidth=1;fillColor=none;align=left;verticalAlign=middle;spacingTop=-1;spacingLeft=3;spacingRight=3;rotatable=0;labelPosition=right;points=[];portConstraint=eastwest;" parent="cL8bjoN6jts4UuPoE08g-10" vertex="1">
          <mxGeometry y="46" width="160" height="8" as="geometry" />
        </mxCell>
        <mxCell id="cL8bjoN6jts4UuPoE08g-13" value="+ " style="text;strokeColor=none;fillColor=none;align=left;verticalAlign=top;spacingLeft=4;spacingRight=4;overflow=hidden;rotatable=0;points=[[0,0.5],[1,0.5]];portConstraint=eastwest;" parent="cL8bjoN6jts4UuPoE08g-10" vertex="1">
          <mxGeometry y="54" width="160" height="26" as="geometry" />
        </mxCell>
        <mxCell id="cL8bjoN6jts4UuPoE08g-14" value="Pufferfish" style="swimlane;fontStyle=1;align=center;verticalAlign=top;childLayout=stackLayout;horizontal=1;startSize=26;horizontalStack=0;resizeParent=1;resizeParentMax=0;resizeLast=0;collapsible=1;marginBottom=0;" parent="WIyWlLk6GJQsqaUBKTNV-1" vertex="1">
          <mxGeometry x="-520" y="-934" width="160" height="86" as="geometry" />
        </mxCell>
        <mxCell id="cL8bjoN6jts4UuPoE08g-15" value="- " style="text;strokeColor=none;fillColor=none;align=left;verticalAlign=top;spacingLeft=4;spacingRight=4;overflow=hidden;rotatable=0;points=[[0,0.5],[1,0.5]];portConstraint=eastwest;" parent="cL8bjoN6jts4UuPoE08g-14" vertex="1">
          <mxGeometry y="26" width="160" height="26" as="geometry" />
        </mxCell>
        <mxCell id="cL8bjoN6jts4UuPoE08g-16" value="" style="line;strokeWidth=1;fillColor=none;align=left;verticalAlign=middle;spacingTop=-1;spacingLeft=3;spacingRight=3;rotatable=0;labelPosition=right;points=[];portConstraint=eastwest;" parent="cL8bjoN6jts4UuPoE08g-14" vertex="1">
          <mxGeometry y="52" width="160" height="8" as="geometry" />
        </mxCell>
        <mxCell id="cL8bjoN6jts4UuPoE08g-17" value="+ " style="text;strokeColor=none;fillColor=none;align=left;verticalAlign=top;spacingLeft=4;spacingRight=4;overflow=hidden;rotatable=0;points=[[0,0.5],[1,0.5]];portConstraint=eastwest;" parent="cL8bjoN6jts4UuPoE08g-14" vertex="1">
          <mxGeometry y="60" width="160" height="26" as="geometry" />
        </mxCell>
        <mxCell id="cL8bjoN6jts4UuPoE08g-18" value="" style="endArrow=block;endSize=16;endFill=0;html=1;entryX=0;entryY=1;entryDx=0;entryDy=0;exitX=0.75;exitY=0;exitDx=0;exitDy=0;" parent="WIyWlLk6GJQsqaUBKTNV-1" source="cL8bjoN6jts4UuPoE08g-14" target="m3c3d1ibpdt9MSrah0Dr-6" edge="1">
          <mxGeometry x="0.125" y="-60" width="160" relative="1" as="geometry">
            <mxPoint x="-339" y="-1039" as="sourcePoint" />
            <mxPoint x="-229" y="-1119" as="targetPoint" />
            <mxPoint as="offset" />
          </mxGeometry>
        </mxCell>
        <mxCell id="cL8bjoN6jts4UuPoE08g-20" value="" style="endArrow=block;endSize=16;endFill=0;html=1;entryX=1;entryY=1;entryDx=0;entryDy=0;exitX=0;exitY=0.5;exitDx=0;exitDy=0;" parent="WIyWlLk6GJQsqaUBKTNV-1" source="cL8bjoN6jts4UuPoE08g-11" target="m3c3d1ibpdt9MSrah0Dr-6" edge="1">
          <mxGeometry x="0.125" y="-60" width="160" relative="1" as="geometry">
            <mxPoint x="-189" y="-1044" as="sourcePoint" />
            <mxPoint x="-189" y="-1106" as="targetPoint" />
            <mxPoint as="offset" />
          </mxGeometry>
        </mxCell>
        <mxCell id="m3c3d1ibpdt9MSrah0Dr-63" value="Cockatoo" style="swimlane;fontStyle=1;align=center;verticalAlign=top;childLayout=stackLayout;horizontal=1;startSize=26;horizontalStack=0;resizeParent=1;resizeParentMax=0;resizeLast=0;collapsible=1;marginBottom=0;" parent="WIyWlLk6GJQsqaUBKTNV-1" vertex="1">
          <mxGeometry x="-901.94" y="-1548.71" width="160" height="86" as="geometry" />
        </mxCell>
        <mxCell id="m3c3d1ibpdt9MSrah0Dr-64" value="-" style="text;strokeColor=none;fillColor=none;align=left;verticalAlign=top;spacingLeft=4;spacingRight=4;overflow=hidden;rotatable=0;points=[[0,0.5],[1,0.5]];portConstraint=eastwest;" parent="m3c3d1ibpdt9MSrah0Dr-63" vertex="1">
          <mxGeometry y="26" width="160" height="26" as="geometry" />
        </mxCell>
        <mxCell id="m3c3d1ibpdt9MSrah0Dr-65" value="" style="line;strokeWidth=1;fillColor=none;align=left;verticalAlign=middle;spacingTop=-1;spacingLeft=3;spacingRight=3;rotatable=0;labelPosition=right;points=[];portConstraint=eastwest;" parent="m3c3d1ibpdt9MSrah0Dr-63" vertex="1">
          <mxGeometry y="52" width="160" height="8" as="geometry" />
        </mxCell>
        <mxCell id="m3c3d1ibpdt9MSrah0Dr-66" value="+" style="text;strokeColor=none;fillColor=none;align=left;verticalAlign=top;spacingLeft=4;spacingRight=4;overflow=hidden;rotatable=0;points=[[0,0.5],[1,0.5]];portConstraint=eastwest;" parent="m3c3d1ibpdt9MSrah0Dr-63" vertex="1">
          <mxGeometry y="60" width="160" height="26" as="geometry" />
        </mxCell>
        <mxCell id="m3c3d1ibpdt9MSrah0Dr-67" value="Macaws" style="swimlane;fontStyle=1;align=center;verticalAlign=top;childLayout=stackLayout;horizontal=1;startSize=26;horizontalStack=0;resizeParent=1;resizeParentMax=0;resizeLast=0;collapsible=1;marginBottom=0;" parent="WIyWlLk6GJQsqaUBKTNV-1" vertex="1">
          <mxGeometry x="-709" y="-1504" width="170" height="86" as="geometry" />
        </mxCell>
        <mxCell id="m3c3d1ibpdt9MSrah0Dr-68" value="- Speech: String " style="text;strokeColor=none;fillColor=none;align=left;verticalAlign=top;spacingLeft=4;spacingRight=4;overflow=hidden;rotatable=0;points=[[0,0.5],[1,0.5]];portConstraint=eastwest;" parent="m3c3d1ibpdt9MSrah0Dr-67" vertex="1">
          <mxGeometry y="26" width="170" height="26" as="geometry" />
        </mxCell>
        <mxCell id="m3c3d1ibpdt9MSrah0Dr-69" value="" style="line;strokeWidth=1;fillColor=none;align=left;verticalAlign=middle;spacingTop=-1;spacingLeft=3;spacingRight=3;rotatable=0;labelPosition=right;points=[];portConstraint=eastwest;" parent="m3c3d1ibpdt9MSrah0Dr-67" vertex="1">
          <mxGeometry y="52" width="170" height="8" as="geometry" />
        </mxCell>
        <mxCell id="m3c3d1ibpdt9MSrah0Dr-70" value="+" style="text;strokeColor=none;fillColor=none;align=left;verticalAlign=top;spacingLeft=4;spacingRight=4;overflow=hidden;rotatable=0;points=[[0,0.5],[1,0.5]];portConstraint=eastwest;" parent="m3c3d1ibpdt9MSrah0Dr-67" vertex="1">
          <mxGeometry y="60" width="170" height="26" as="geometry" />
        </mxCell>
        <mxCell id="m3c3d1ibpdt9MSrah0Dr-71" value="Toucan" style="swimlane;fontStyle=1;align=center;verticalAlign=top;childLayout=stackLayout;horizontal=1;startSize=26;horizontalStack=0;resizeParent=1;resizeParentMax=0;resizeLast=0;collapsible=1;marginBottom=0;" parent="WIyWlLk6GJQsqaUBKTNV-1" vertex="1">
          <mxGeometry x="-709" y="-1636" width="160" height="86" as="geometry" />
        </mxCell>
        <mxCell id="m3c3d1ibpdt9MSrah0Dr-72" value="- " style="text;strokeColor=none;fillColor=none;align=left;verticalAlign=top;spacingLeft=4;spacingRight=4;overflow=hidden;rotatable=0;points=[[0,0.5],[1,0.5]];portConstraint=eastwest;" parent="m3c3d1ibpdt9MSrah0Dr-71" vertex="1">
          <mxGeometry y="26" width="160" height="26" as="geometry" />
        </mxCell>
        <mxCell id="m3c3d1ibpdt9MSrah0Dr-73" value="" style="line;strokeWidth=1;fillColor=none;align=left;verticalAlign=middle;spacingTop=-1;spacingLeft=3;spacingRight=3;rotatable=0;labelPosition=right;points=[];portConstraint=eastwest;" parent="m3c3d1ibpdt9MSrah0Dr-71" vertex="1">
          <mxGeometry y="52" width="160" height="8" as="geometry" />
        </mxCell>
        <mxCell id="m3c3d1ibpdt9MSrah0Dr-74" value="+ " style="text;strokeColor=none;fillColor=none;align=left;verticalAlign=top;spacingLeft=4;spacingRight=4;overflow=hidden;rotatable=0;points=[[0,0.5],[1,0.5]];portConstraint=eastwest;" parent="m3c3d1ibpdt9MSrah0Dr-71" vertex="1">
          <mxGeometry y="60" width="160" height="26" as="geometry" />
        </mxCell>
        <mxCell id="m3c3d1ibpdt9MSrah0Dr-75" value="" style="endArrow=block;endSize=16;endFill=0;html=1;exitX=1.003;exitY=1.007;exitDx=0;exitDy=0;exitPerimeter=0;" parent="WIyWlLk6GJQsqaUBKTNV-1" source="m3c3d1ibpdt9MSrah0Dr-72" edge="1">
          <mxGeometry width="160" relative="1" as="geometry">
            <mxPoint x="271" y="-1328.71" as="sourcePoint" />
            <mxPoint x="-499" y="-1569.71" as="targetPoint" />
          </mxGeometry>
        </mxCell>
        <mxCell id="m3c3d1ibpdt9MSrah0Dr-76" value="" style="endArrow=block;endSize=16;endFill=0;html=1;entryX=0;entryY=0.5;entryDx=0;entryDy=0;exitX=0.996;exitY=-0.061;exitDx=0;exitDy=0;exitPerimeter=0;" parent="WIyWlLk6GJQsqaUBKTNV-1" source="m3c3d1ibpdt9MSrah0Dr-68" target="m3c3d1ibpdt9MSrah0Dr-3" edge="1">
          <mxGeometry width="160" relative="1" as="geometry">
            <mxPoint x="271" y="-1268.71" as="sourcePoint" />
            <mxPoint x="301" y="-1108.71" as="targetPoint" />
          </mxGeometry>
        </mxCell>
        <mxCell id="m3c3d1ibpdt9MSrah0Dr-77" value="" style="endArrow=block;endSize=16;endFill=0;html=1;exitX=1;exitY=0.25;exitDx=0;exitDy=0;entryX=0.036;entryY=0.992;entryDx=0;entryDy=0;entryPerimeter=0;" parent="WIyWlLk6GJQsqaUBKTNV-1" source="m3c3d1ibpdt9MSrah0Dr-63" target="m3c3d1ibpdt9MSrah0Dr-1" edge="1">
          <mxGeometry width="160" relative="1" as="geometry">
            <mxPoint x="141" y="-1028.71" as="sourcePoint" />
            <mxPoint x="301" y="-1028.71" as="targetPoint" />
          </mxGeometry>
        </mxCell>
        <mxCell id="EgEwRkmP4EtMBpDy1kLM-0" value="Zoo Keepers" style="swimlane;fontStyle=1;align=center;verticalAlign=top;childLayout=stackLayout;horizontal=1;startSize=26;horizontalStack=0;resizeParent=1;resizeParentMax=0;resizeLast=0;collapsible=1;marginBottom=0;" parent="WIyWlLk6GJQsqaUBKTNV-1" vertex="1">
          <mxGeometry x="-814" y="-880" width="160" height="214" as="geometry" />
        </mxCell>
        <mxCell id="EgEwRkmP4EtMBpDy1kLM-1" value="- name: String&#xa;- height: Integer&#xa;- workHours: Double&#xa;- fieldOfStudy: String&#xa;- &#xa;" style="text;strokeColor=none;fillColor=none;align=left;verticalAlign=top;spacingLeft=4;spacingRight=4;overflow=hidden;rotatable=0;points=[[0,0.5],[1,0.5]];portConstraint=eastwest;" parent="EgEwRkmP4EtMBpDy1kLM-0" vertex="1">
          <mxGeometry y="26" width="160" height="154" as="geometry" />
        </mxCell>
        <mxCell id="EgEwRkmP4EtMBpDy1kLM-2" value="" style="line;strokeWidth=1;fillColor=none;align=left;verticalAlign=middle;spacingTop=-1;spacingLeft=3;spacingRight=3;rotatable=0;labelPosition=right;points=[];portConstraint=eastwest;" parent="EgEwRkmP4EtMBpDy1kLM-0" vertex="1">
          <mxGeometry y="180" width="160" height="8" as="geometry" />
        </mxCell>
        <mxCell id="EgEwRkmP4EtMBpDy1kLM-3" value="+ method(type): type" style="text;strokeColor=none;fillColor=none;align=left;verticalAlign=top;spacingLeft=4;spacingRight=4;overflow=hidden;rotatable=0;points=[[0,0.5],[1,0.5]];portConstraint=eastwest;" parent="EgEwRkmP4EtMBpDy1kLM-0" vertex="1">
          <mxGeometry y="188" width="160" height="26" as="geometry" />
        </mxCell>
        <mxCell id="wjPH6wobF5ZovbLUbJrG-0" value="&lt;h1&gt;&lt;span&gt;What will the program do?&lt;/span&gt;&lt;br&gt;&lt;/h1&gt;&lt;div&gt;&lt;span&gt;- Display all animals&lt;/span&gt;&lt;/div&gt;&lt;div&gt;&lt;span&gt;- After viewing animals ask if you want to&amp;nbsp; progress to the next year&lt;/span&gt;&lt;/div&gt;&lt;div&gt;&lt;span&gt;- DIsplay new year stats, e.g. population, deaths, births&lt;/span&gt;&lt;/div&gt;&lt;div&gt;&lt;span&gt;- Each animal will have an assigned enclosure. Each enclosure will be able to have its inhabitant/contents change. (subclass of animal)&lt;/span&gt;&lt;/div&gt;" style="text;html=1;strokeColor=none;fillColor=none;spacing=5;spacingTop=-20;whiteSpace=wrap;overflow=hidden;rounded=0;" vertex="1" parent="WIyWlLk6GJQsqaUBKTNV-1">
          <mxGeometry x="-360" y="-760" width="320" height="240" as="geometry" />
        </mxCell>
      </root>
    </mxGraphModel>
  </diagram>
</mxfile>
